<svg width="422" height="389" viewBox="0 0 422 389" fill="none" xmlns="http://www.w3.org/2000/svg">
<mask id="mask0_316_27" style="mask-type:luminance" maskUnits="userSpaceOnUse" x="0" y="0" width="422" height="389">
<path d="M0 0H422V389H0V0Z" fill="white"/>
</mask>
<g mask="url(#mask0_316_27)">
<path d="M281.266 156.974C328.214 156.974 375.161 156.974 422.109 156.974L287.505 0.078125H166.969L0 194.698L164.719 386.703L287.438 389.396L421.896 232.672C374.948 232.672 328 232.672 281.057 232.672L227.234 295.401L140.844 194.698L227.24 94L281.266 156.974ZM276.703 23.75L370.682 133.302H357.526L300.604 65.8385L299.354 67.099L347.406 133.302H336.302L279.344 65.8385L278.094 67.0938L326.156 133.302H314.224L257.286 65.8385L256.036 67.0938L304.052 133.302H292.073L198.089 23.75H276.703ZM291.854 256.344H303.88L256.036 322.307L257.286 323.568L314.021 256.344H325.979L278.094 322.307L279.344 323.568L336.099 256.344H347.229L299.354 322.307L300.609 323.568L357.323 256.344H370.474L276.766 365.573L199.604 363.875C230.359 328.031 261.104 292.188 291.854 256.344ZM109.729 194.703L211.677 313.536L206.823 319.193L145.906 256.693L144.75 258.036L201.469 325.438L195.995 331.813L135.063 269.333L133.906 270.682L190.63 338.068L184.62 345.073L123.698 282.583L122.542 283.927L179.234 351.349L172.375 359.349L31.1146 194.698L172.37 30.0521L179.234 38.0469L122.536 105.474L123.693 106.818L184.62 44.3281L190.625 51.3281L133.906 118.719L135.057 120.063L195.995 57.5833L201.464 63.9635L144.75 131.359L145.901 132.708L206.818 70.2083L211.677 75.8646L109.729 194.703Z" fill="#E14AB7"/>
</g>
</svg>
